<?xml version="1.0" standalone="no"?>
<!DOCTYPE svg PUBLIC "-//W3C//DTD SVG 20010904//EN"
 "http://www.w3.org/TR/2001/REC-SVG-20010904/DTD/svg10.dtd">
<svg version="1.0" xmlns="http://www.w3.org/2000/svg"
 width="192.000000pt" height="192.000000pt" viewBox="0 0 192.000000 192.000000"
 preserveAspectRatio="xMidYMid meet">

<g transform="translate(0.000000,192.000000) scale(0.100000,-0.100000)"
fill="#000000" stroke="none">
<path d="M413 1635 c-117 -32 -243 -125 -300 -223 -70 -119 -84 -287 -35 -427
36 -102 75 -162 201 -308 l102 -118 -12 -33 c-11 -29 -10 -38 5 -61 27 -40 58
-51 97 -31 31 15 33 15 55 -5 18 -17 21 -26 14 -40 -37 -67 53 -141 115 -95
17 12 23 12 47 -6 22 -15 28 -27 28 -58 0 -30 6 -43 26 -59 32 -25 49 -26 88
-6 26 14 31 14 52 0 13 -9 24 -24 24 -34 0 -10 9 -30 21 -45 15 -20 29 -26 57
-26 36 0 54 17 423 388 237 237 397 406 414 435 44 78 65 159 65 256 0 147
-50 270 -149 364 -104 99 -220 147 -356 147 -137 0 -258 -49 -369 -152 l-64
-58 -64 63 c-71 70 -137 109 -223 132 -73 18 -192 18 -262 0z m1122 -169 c76
-34 139 -97 178 -175 28 -58 32 -75 32 -151 0 -148 -3 -152 -388 -537 -182
-183 -335 -333 -339 -333 -5 0 -8 12 -8 27 0 23 56 84 320 348 360 361 364
366 364 495 1 62 -4 85 -27 132 -54 109 -159 173 -284 171 -94 -1 -157 -35
-266 -143 -50 -49 -93 -90 -94 -90 -2 0 -3 15 -3 33 0 27 12 44 73 103 89 88
124 112 195 135 75 25 173 19 247 -15z m-75 -194 c71 -35 104 -141 64 -202
-21 -31 -516 -530 -526 -530 -5 0 -8 19 -8 42 0 42 3 45 240 283 227 228 240
243 240 278 0 47 -28 77 -73 77 -28 0 -52 -19 -202 -170 -93 -94 -174 -170
-179 -170 -5 0 -6 21 -2 48 6 44 14 55 144 186 75 76 151 147 167 157 38 24
90 24 135 1z m-1117 -292 c20 -16 155 -227 176 -273 2 -5 -14 -26 -35 -48
l-38 -39 -29 28 c-16 15 -64 68 -108 118 -104 121 -118 157 -78 208 25 32 75
35 112 6z m301 -436 c18 -25 18 -26 -5 -50 -27 -29 -30 -29 -60 -5 l-24 19 29
31 c17 17 32 31 35 31 3 0 14 -12 25 -26z m151 -164 c16 -18 15 -50 -2 -50 -4
0 -19 9 -33 19 -20 16 -22 21 -11 35 17 21 24 20 46 -4z"/>
</g>
</svg>
